<svg width="16" height="16" viewBox="0 0 16 16" fill="none" xmlns="http://www.w3.org/2000/svg">
<path fill-rule="evenodd" clip-rule="evenodd" d="M11.0092 14.3334H5.44398C3.39974 14.3334 1.83148 13.595 2.27694 10.6232L2.79562 6.59575C3.07022 5.11292 4.01607 4.54541 4.84597 4.54541H11.6316C12.4737 4.54541 13.3647 5.15563 13.682 6.59575L14.2007 10.6232C14.579 13.2594 13.0534 14.3334 11.0092 14.3334Z" stroke="white" stroke-width="1.5" stroke-linecap="round" stroke-linejoin="round"/>
<path d="M11.1007 4.39895C11.1007 2.80823 9.81117 1.5187 8.22045 1.5187V1.5187C7.45445 1.51546 6.71871 1.81748 6.17592 2.35798C5.63312 2.89848 5.328 3.63294 5.328 4.39895H5.328" stroke="white" stroke-width="1.5" stroke-linecap="round" stroke-linejoin="round"/>
<path d="M10.1976 7.40124H10.1671" stroke="white" stroke-width="1.5" stroke-linecap="round" stroke-linejoin="round"/>
<path d="M6.31048 7.40124H6.27997" stroke="white" stroke-width="1.5" stroke-linecap="round" stroke-linejoin="round"/>
</svg>
