<svg width="16" height="16" viewBox="0 0 16 16" fill="none" xmlns="http://www.w3.org/2000/svg">
<path fill-rule="evenodd" clip-rule="evenodd" d="M11.0517 13.2136C10.7704 13.2136 10.5417 13.4422 10.5417 13.7236C10.5417 14.0049 10.7704 14.2329 11.0517 14.2329C11.333 14.2329 11.561 14.0049 11.561 13.7236C11.561 13.4422 11.333 13.2136 11.0517 13.2136Z" stroke="#FF6418" stroke-linecap="round" stroke-linejoin="round"/>
<path fill-rule="evenodd" clip-rule="evenodd" d="M3.5503 13.2136C3.26897 13.2136 3.0403 13.4422 3.0403 13.7236C3.0403 14.0049 3.26897 14.2329 3.5503 14.2329C3.83164 14.2329 4.0603 14.0049 4.0603 13.7236C4.0603 13.4422 3.83164 13.2136 3.5503 13.2136Z" stroke="#FF6418" stroke-linecap="round" stroke-linejoin="round"/>
<path d="M14.1667 2.16669L12.7801 2.40669L12.1381 10.0554C12.0861 10.6787 11.5654 11.1574 10.9401 11.1574H3.66541C3.06808 11.1574 2.56141 10.7187 2.47541 10.1267L1.84275 5.75469C1.76475 5.21535 2.18275 4.73269 2.72741 4.73269H12.5574" stroke="#FF6418" stroke-linecap="round" stroke-linejoin="round"/>
<path d="M6.58301 7.19668H4.73434" stroke="#FF6418" stroke-linecap="round" stroke-linejoin="round"/>
</svg>
