<svg width="24" height="24" viewBox="0 0 24 24" fill="none" xmlns="http://www.w3.org/2000/svg">
<path d="M16.2858 2.6H19.5524C20.5675 2.6 21.4003 3.4322 21.4003 4.47018V7.7641C21.4003 8.80121 20.5674 9.63429 19.5524 9.63429H16.2858C15.2697 9.63429 14.4369 8.80105 14.4369 7.7641V4.47018C14.4369 3.43237 15.2695 2.6 16.2858 2.6Z" stroke="#020105" stroke-width="1.2" stroke-linecap="round" stroke-linejoin="round"/>
<path d="M4.44892 2.6H7.71449C8.73078 2.6 9.56341 3.43237 9.56341 4.47018V7.7641C9.56341 8.80105 8.73062 9.63429 7.71449 9.63429H4.44892C3.43279 9.63429 2.6 8.80105 2.6 7.7641V4.47018C2.6 3.43237 3.43263 2.6 4.44892 2.6Z" stroke="#020105" stroke-width="1.2" stroke-linecap="round" stroke-linejoin="round"/>
<path d="M4.44892 14.3656H7.71449C8.73062 14.3656 9.56341 15.1978 9.56341 16.2368V19.5297C9.56341 20.5675 8.73078 21.3999 7.71449 21.3999H4.44892C3.43263 21.3999 2.6 20.5675 2.6 19.5297V16.2368C2.6 15.1978 3.43279 14.3656 4.44892 14.3656Z" stroke="#020105" stroke-width="1.2" stroke-linecap="round" stroke-linejoin="round"/>
<path d="M16.2858 14.3656H19.5524C20.5674 14.3656 21.4003 15.1977 21.4003 16.2368V19.5297C21.4003 20.5677 20.5675 21.3999 19.5524 21.3999H16.2858C15.2695 21.3999 14.4369 20.5675 14.4369 19.5297V16.2368C14.4369 15.1978 15.2697 14.3656 16.2858 14.3656Z" stroke="#020105" stroke-width="1.2" stroke-linecap="round" stroke-linejoin="round"/>
</svg>
