<svg width="25" height="24" viewBox="0 0 25 24" fill="none" xmlns="http://www.w3.org/2000/svg">
<path d="M19.3754 8.74001L16.0733 5.43787L15.8624 5.22699L15.6502 5.43662L13.7361 7.32823L12.0357 5.64781L14.6483 3.01214C14.6484 3.01201 14.6485 3.01188 14.6486 3.01176C14.8196 2.84084 15.0079 2.71971 15.2144 2.64368C15.4334 2.56369 15.6486 2.52501 15.8611 2.52501C16.0926 2.52501 16.3108 2.56447 16.5177 2.64251C16.7131 2.71706 16.8867 2.83548 17.04 3.00272L17.0398 3.00292L17.049 3.01214L19.174 5.13714L19.1739 5.13722L19.1801 5.14311C19.4481 5.39622 19.6431 5.68729 19.7685 6.0182C19.8976 6.36116 19.9611 6.7046 19.9611 7.05001C19.9611 7.39549 19.8976 7.73394 19.7692 8.06705C19.6769 8.3054 19.5463 8.52967 19.3754 8.74001ZM5.82326 11.8621L5.82433 11.8611L8.0622 9.60035L9.76186 11.3L7.49899 13.5629L7.4989 13.5628L7.49302 13.569C7.26573 13.8097 6.99834 13.925 6.67312 13.925C6.34816 13.925 6.06949 13.8091 5.82325 13.5629C5.57712 13.3167 5.46112 13.0378 5.46112 12.712C5.46112 12.387 5.57701 12.1084 5.82326 11.8621ZM13.9483 9.38714L15.1592 8.17616L17.7471 10.8103L17.7471 10.8103L17.749 10.8121C17.8965 10.9597 17.9611 11.1181 17.9611 11.3C17.9611 11.4819 17.8965 11.6403 17.749 11.7879C17.6015 11.9354 17.443 12 17.2611 12C17.0792 12 16.9208 11.9354 16.7733 11.7879L16.5611 11.5757L16.349 11.7879L7.14899 20.9879C6.97614 21.1607 6.79082 21.2815 6.59293 21.3564L6.59252 21.3566C6.38333 21.4361 6.1734 21.475 5.96112 21.475C5.75214 21.475 5.53985 21.4334 5.32254 21.3465C5.11043 21.2616 4.9195 21.1424 4.74846 20.9876C4.59218 20.8151 4.47278 20.6271 4.38827 20.4232C4.30363 20.2183 4.26112 20.003 4.26112 19.775C4.26112 19.5435 4.30058 19.3253 4.37864 19.1183C4.45418 18.9204 4.57532 18.7351 4.74802 18.5624C4.7481 18.5623 4.74818 18.5622 4.74825 18.5621L11.8229 11.5125L12.0349 11.3012L11.8241 11.0887L8.64908 7.88871L8.6492 7.8886L8.64211 7.8819C8.40145 7.65462 8.28612 7.38723 8.28612 7.06201C8.28612 6.73704 8.40201 6.45838 8.64825 6.21214L8.64834 6.21222L8.65422 6.20599C8.88026 5.96666 9.15108 5.85001 9.48612 5.85001C9.82161 5.85001 10.1041 5.96725 10.349 6.21214L13.524 9.38714L13.7361 9.59927L13.9483 9.38714Z" fill="white" stroke="#727474" stroke-width="0.6"/>
</svg>
