<svg width="25" height="24" viewBox="0 0 25 24" fill="none" xmlns="http://www.w3.org/2000/svg">
<path d="M19.3837 7.311H17.1707V6.426C17.1707 3.947 15.1347 2 12.5237 2C9.91171 2 7.87571 3.947 7.87571 6.426V7.311H5.66271C5.42806 7.31179 5.20327 7.40542 5.03744 7.57144C4.87162 7.73745 4.77824 7.96235 4.77771 8.197V21.475C4.77771 21.962 5.17571 22.36 5.66271 22.36H19.3837C19.6182 22.3592 19.8428 22.2657 20.0086 22.0999C20.1744 21.9341 20.2679 21.7095 20.2687 21.475V8.197C20.2682 7.96235 20.1748 7.73745 20.009 7.57144C19.8432 7.40542 19.6184 7.31179 19.3837 7.311ZM8.76071 6.426C8.76071 4.434 10.4207 2.886 12.5237 2.886C14.6257 2.886 16.2857 4.434 16.2857 6.426V7.311H8.76071V6.426ZM19.3837 21.475H5.66371V8.197H19.3837V21.475ZM9.86771 13.95C8.89371 13.95 8.09771 13.154 8.09771 12.18C8.09771 11.206 8.89371 10.41 9.86771 10.41C10.8417 10.41 11.6377 11.206 11.6377 12.18C11.6377 13.154 10.8417 13.95 9.86771 13.95ZM9.86771 11.295C9.63324 11.2958 9.40859 11.3893 9.24279 11.5551C9.077 11.7209 8.9835 11.9455 8.98271 12.18C8.98271 12.667 9.38071 13.065 9.86771 13.065C10.1022 13.0642 10.3268 12.9707 10.4926 12.8049C10.6584 12.6391 10.7519 12.4145 10.7527 12.18C10.7519 11.9455 10.6584 11.7209 10.4926 11.5551C10.3268 11.3893 10.1022 11.2958 9.86771 11.295ZM15.1787 19.262C14.2057 19.262 13.4087 18.465 13.4087 17.492C13.4087 16.518 14.2057 15.721 15.1787 15.721C16.1527 15.721 16.9487 16.518 16.9487 17.491C16.9487 18.465 16.1527 19.261 15.1787 19.261V19.262ZM15.1787 16.606C14.9442 16.6068 14.7196 16.7003 14.5538 16.8661C14.388 17.0319 14.2945 17.2565 14.2937 17.491C14.2937 17.978 14.6917 18.377 15.1787 18.377C15.4135 18.3765 15.6386 18.283 15.8046 18.1169C15.9707 17.9509 16.0642 17.7258 16.0647 17.491C16.0639 17.2564 15.9703 17.0316 15.8043 16.8657C15.6383 16.6999 15.4134 16.6065 15.1787 16.606ZM8.76071 19.04C8.70287 19.0396 8.64569 19.0277 8.59248 19.0051C8.53926 18.9824 8.49108 18.9494 8.45071 18.908C8.40872 18.868 8.37528 18.8199 8.35244 18.7666C8.32959 18.7134 8.31781 18.656 8.31781 18.598C8.31781 18.54 8.32959 18.4826 8.35244 18.4294C8.37528 18.3761 8.40872 18.328 8.45071 18.288L15.9757 10.764C16.0157 10.722 16.0638 10.6886 16.1171 10.6657C16.1704 10.6429 16.2277 10.6311 16.2857 10.6311C16.3437 10.6311 16.4011 10.6429 16.4544 10.6657C16.5076 10.6886 16.5557 10.722 16.5957 10.764C16.6377 10.804 16.6711 10.8521 16.694 10.9054C16.7168 10.9586 16.7286 11.016 16.7286 11.074C16.7286 11.132 16.7168 11.1894 16.694 11.2426C16.6711 11.2959 16.6377 11.344 16.5957 11.384L9.07071 18.908C9.03034 18.9494 8.98216 18.9824 8.92894 19.0051C8.87573 19.0277 8.81855 19.0396 8.76071 19.04Z" fill="#727474" stroke="#727474" stroke-width="0.5"/>
</svg>
