<svg width="25" height="24" viewBox="0 0 25 24" fill="none" xmlns="http://www.w3.org/2000/svg">
<path d="M21.9322 8.743C21.8189 8.61098 21.6784 8.50506 21.5203 8.43256C21.3621 8.36005 21.1902 8.32268 21.0162 8.323H19.1362L19.4512 5.356C19.4727 5.18623 19.4577 5.01384 19.4073 4.85031C19.357 4.68677 19.2723 4.53583 19.1591 4.40755C19.0459 4.27926 18.9066 4.17657 18.7506 4.10629C18.5945 4.03602 18.4253 3.99979 18.2542 4H6.19022C6.01974 3.99993 5.85117 4.036 5.69565 4.10585C5.54013 4.17569 5.40118 4.27772 5.28797 4.40519C5.17477 4.53267 5.08987 4.6827 5.03889 4.84538C4.98792 5.00807 4.97201 5.17972 4.99222 5.349L5.30722 8.323H3.42822C3.25438 8.32301 3.08259 8.36059 2.92463 8.43319C2.76667 8.50579 2.62628 8.61168 2.51306 8.7436C2.39985 8.87553 2.31649 9.03037 2.26871 9.19752C2.22093 9.36467 2.20985 9.54017 2.23622 9.712L3.44022 17.537C3.47651 17.7799 3.59907 18.0016 3.78546 18.1616C3.97185 18.3215 4.20961 18.409 4.45522 18.408H5.58322L5.06222 20.493C5.03902 20.5857 5.05358 20.6838 5.10272 20.7658C5.15185 20.8477 5.23153 20.9068 5.32422 20.93C5.41692 20.9532 5.51503 20.9386 5.59699 20.8895C5.67894 20.8404 5.73802 20.7607 5.76122 20.668L6.32522 18.408H18.1182L18.6832 20.668C18.6933 20.7154 18.7128 20.7603 18.7407 20.8001C18.7685 20.8398 18.804 20.8735 18.8451 20.8992C18.8863 20.9248 18.9321 20.942 18.98 20.9495C19.0279 20.9571 19.0769 20.9549 19.1239 20.9432C19.1709 20.9314 19.2151 20.9103 19.2538 20.8811C19.2925 20.8519 19.3249 20.8152 19.3491 20.7732C19.3734 20.7311 19.3888 20.6847 19.3947 20.6365C19.4006 20.5884 19.3967 20.5396 19.3832 20.493L18.8612 18.408H19.9892C20.2347 18.409 20.4723 18.3217 20.6587 18.162C20.8451 18.0022 20.9677 17.7807 21.0042 17.538L22.2082 9.712C22.2347 9.54006 22.2237 9.36442 22.1759 9.19715C22.1281 9.02988 22.0446 8.87495 21.9312 8.743H21.9322ZM6.09822 13.233C6.09822 13.222 6.10122 13.21 6.10522 13.198C6.11229 13.1756 6.1263 13.156 6.14522 13.142C6.20822 13.094 6.27222 13.047 6.33822 13.001L6.36422 12.984C6.41622 12.948 6.46922 12.913 6.52222 12.879L6.59722 12.833C6.70077 12.7696 6.80615 12.7092 6.91322 12.652L6.99622 12.608C7.12579 12.5416 7.25789 12.4802 7.39222 12.424L7.49022 12.384C7.59573 12.3416 7.70244 12.3022 7.81022 12.266L7.92822 12.227L8.01022 12.202C8.11422 12.172 8.22022 12.142 8.32522 12.116L8.33522 12.113C8.38907 12.1003 8.44308 12.0883 8.49722 12.077L8.55222 12.065C8.60622 12.053 8.66022 12.043 8.71522 12.033L8.76422 12.024C8.82222 12.014 8.88122 12.004 8.93922 11.996L8.94922 11.995C9.08423 11.975 9.21922 11.96 9.35622 11.948H9.36223C9.54423 11.933 9.72822 11.925 9.91222 11.925H14.5322C14.9133 11.9253 15.2937 11.9581 15.6692 12.023L15.7192 12.031L15.8562 12.058L15.9462 12.077C16.1011 12.1101 16.2546 12.1494 16.4062 12.195L16.4902 12.22C16.5602 12.241 16.6282 12.264 16.6962 12.287L16.7562 12.31C16.8062 12.327 16.8542 12.345 16.9022 12.364L16.9962 12.402C17.1374 12.4601 17.2765 12.5231 17.4132 12.591L17.4672 12.619C17.6872 12.733 17.9002 12.86 18.1042 13.001L18.1082 13.004L18.1762 13.051C18.2288 13.089 18.2716 13.1388 18.3012 13.1965C18.3307 13.2543 18.3462 13.3182 18.3462 13.383V14.693C18.3462 14.723 18.3343 14.7517 18.3131 14.7729C18.2919 14.7941 18.2632 14.806 18.2332 14.806H6.21122C6.18143 14.806 6.15284 14.7942 6.13167 14.7733C6.11051 14.7523 6.09849 14.7238 6.09822 14.694V13.234V13.233ZM5.82622 4.885C5.87148 4.83296 5.92742 4.79129 5.99024 4.76282C6.05305 4.73434 6.12126 4.71974 6.19022 4.72H18.2542C18.3237 4.72005 18.3923 4.73499 18.4555 4.7638C18.5187 4.79262 18.575 4.83465 18.6206 4.88705C18.6661 4.93945 18.7 5.00102 18.7197 5.06759C18.7395 5.13417 18.7448 5.20421 18.7352 5.273L18.3852 8.585L18.0132 12.095L17.9992 12.087C17.8006 11.9759 17.5963 11.8751 17.3872 11.785L17.3052 11.751C17.2271 11.7186 17.1485 11.6875 17.0692 11.658L16.9822 11.625C16.8807 11.5887 16.7783 11.5547 16.6752 11.523L16.5992 11.501C16.3803 11.4365 16.1583 11.3824 15.9342 11.339L15.9232 11.336C15.8044 11.3134 15.685 11.2937 15.5652 11.277L15.5222 11.272C15.4095 11.2567 15.2965 11.244 15.1832 11.234L15.1672 11.232C15.0649 11.2137 14.9612 11.2043 14.8572 11.204H9.58722C9.48322 11.204 9.38122 11.214 9.28022 11.232H9.27222C9.02163 11.2535 8.7723 11.2879 8.52523 11.335L8.51922 11.336C8.39922 11.36 8.27922 11.386 8.15922 11.415L8.12422 11.424C7.90556 11.479 7.68965 11.5444 7.47722 11.62C7.35252 11.664 7.22914 11.7117 7.10722 11.763L7.04022 11.792C6.84833 11.8755 6.66046 11.9679 6.47722 12.069L6.43022 12.094L6.07022 8.683L5.70822 5.266C5.69943 5.19775 5.70542 5.1284 5.72578 5.06266C5.74614 4.99693 5.78039 4.93634 5.82622 4.885ZM21.4962 9.602L20.2922 17.428C20.2814 17.5005 20.2448 17.5667 20.1892 17.6145C20.1335 17.6622 20.0625 17.6883 19.9892 17.688H4.45522C4.3819 17.6883 4.31092 17.6622 4.25527 17.6145C4.19962 17.5667 4.16304 17.5005 4.15222 17.428L2.94822 9.603C2.93756 9.53377 2.94199 9.46304 2.9612 9.39568C2.98042 9.32832 3.01397 9.2659 3.05956 9.21272C3.10515 9.15953 3.1617 9.11683 3.22533 9.08753C3.28896 9.05824 3.35817 9.04305 3.42822 9.043H5.38322L5.75222 12.53C5.73821 12.5444 5.72317 12.5578 5.70722 12.57C5.60545 12.6481 5.52289 12.7484 5.46587 12.8634C5.40884 12.9783 5.37886 13.1047 5.37822 13.233V14.693C5.37822 14.914 5.46596 15.126 5.62214 15.2824C5.77833 15.4388 5.99021 15.5267 6.21122 15.527H18.2322C18.4531 15.5267 18.6648 15.4389 18.821 15.2827C18.9771 15.1266 19.065 14.9148 19.0652 14.694V13.384C19.0652 13.34 19.0622 13.298 19.0572 13.255C19.0562 13.241 19.0532 13.228 19.0512 13.214C19.047 13.1858 19.0416 13.1578 19.0352 13.13L19.0222 13.082C19.0155 13.0571 19.0078 13.0324 18.9992 13.008L18.9812 12.96C18.9553 12.8967 18.9238 12.8358 18.8872 12.778L18.8602 12.737C18.8443 12.7144 18.8277 12.6924 18.8102 12.671L18.7822 12.636C18.7599 12.6113 18.7366 12.5876 18.7122 12.565C18.7062 12.558 18.7002 12.551 18.6922 12.545L18.6902 12.542L19.0602 9.042H21.0152C21.0853 9.04188 21.1546 9.05696 21.2183 9.0862C21.2821 9.11544 21.3387 9.15814 21.3843 9.21137C21.4299 9.26459 21.4635 9.32708 21.4826 9.39452C21.5018 9.46195 21.5061 9.53274 21.4952 9.602H21.4962Z" fill="#727474" stroke="#727474" stroke-width="0.2"/>
</svg>
