<svg width="18" height="14" viewBox="0 0 18 14" fill="none" xmlns="http://www.w3.org/2000/svg">
<path d="M16.0125 0.533334C16.4875 0.533334 16.8458 0.950001 16.6541 1.725L14.3291 12.6833C14.1666 13.4625 13.6958 13.65 13.0458 13.2875L7.49996 9.19167C7.47845 9.17624 7.46093 9.15591 7.44884 9.13236C7.43675 9.10881 7.43045 9.08272 7.43045 9.05625C7.43045 9.02978 7.43675 9.00369 7.44884 8.98014C7.46093 8.9566 7.47845 8.93626 7.49996 8.92083L13.9041 3.1375C14.1958 2.87917 13.8416 2.75417 13.4583 2.9875L5.42079 8.05833C5.39641 8.07423 5.36874 8.08437 5.33986 8.08798C5.31098 8.09159 5.28166 8.08858 5.25412 8.07917L1.84162 7C1.08329 6.77917 1.08329 6.25833 2.01246 5.8875L15.6666 0.620834C15.7749 0.568884 15.8925 0.539133 16.0125 0.533334V0.533334Z" stroke="#020105" stroke-width="0.6" stroke-linecap="round" stroke-linejoin="round"/>
</svg>
